<?xml version="1.0" encoding="UTF-8"?><svg xmlns="http://www.w3.org/2000/svg" xmlns:xlink="http://www.w3.org/1999/xlink" contentScriptType="text/ecmascript" width="300pt" zoomAndPan="magnify" contentStyleType="text/css" viewBox="0 0 300 299.999988" height="299.999988pt" preserveAspectRatio="xMidYMid meet" version="1.2"><defs><clipPath xml:id="clip1" id="clip1"><path d="M 8.121094 98 L 134 98 L 134 300 L 8.121094 300 Z M 8.121094 98 "/></clipPath><clipPath xml:id="clip2" id="clip2"><path d="M 145 97 L 269.871094 97 L 269.871094 300 L 145 300 Z M 145 97 "/></clipPath></defs><g xml:id="surface1" id="surface1"><path style=" stroke:none;fill-rule:nonzero;fill:rgb(100%,56.858826%,30.198669%);fill-opacity:1;" d="M 125.273438 17.089844 C 131.558594 13.449219 141.808594 13.449219 148.089844 17.089844 C 154.375 20.726562 154.375 26.683594 148.089844 30.320312 C 141.808594 33.960938 131.558594 33.960938 125.273438 30.320312 C 118.992188 26.683594 118.992188 20.726562 125.273438 17.089844 Z M 159.332031 49.835938 C 165.617188 53.476562 175.867188 53.476562 182.148438 49.835938 C 188.433594 46.199219 188.433594 40.242188 182.148438 36.605469 C 175.867188 32.96875 165.617188 32.96875 159.332031 36.605469 C 153.050781 40.242188 153.050781 46.199219 159.332031 49.835938 Z M 193.0625 69.683594 C 199.34375 73.324219 209.597656 73.324219 215.878906 69.683594 C 222.160156 66.046875 222.160156 60.089844 215.878906 56.453125 C 209.597656 52.8125 199.34375 52.8125 193.0625 56.453125 C 186.777344 60.089844 186.777344 65.714844 193.0625 69.683594 Z M 249.9375 75.96875 C 243.65625 72.328125 233.402344 72.328125 227.121094 75.96875 C 220.839844 79.605469 220.839844 85.5625 227.121094 89.199219 C 233.402344 92.839844 243.65625 92.839844 249.9375 89.199219 C 256.222656 85.5625 256.222656 79.605469 249.9375 75.96875 Z M 91.875 49.835938 C 98.160156 53.476562 108.410156 53.476562 114.691406 49.835938 C 120.976562 46.199219 120.976562 40.242188 114.691406 36.605469 C 108.410156 32.96875 98.160156 32.96875 91.875 36.605469 C 85.59375 40.242188 85.59375 46.199219 91.875 49.835938 Z M 148.421875 56.121094 C 142.136719 52.484375 131.886719 52.484375 125.605469 56.121094 C 119.320312 59.761719 119.320312 65.714844 125.605469 69.351562 C 131.886719 72.992188 142.136719 72.992188 148.421875 69.351562 C 155.035156 66.046875 155.035156 60.089844 148.421875 56.121094 Z M 182.480469 75.96875 C 176.199219 72.328125 165.945312 72.328125 159.664062 75.96875 C 153.382812 79.605469 153.382812 85.5625 159.664062 89.199219 C 165.945312 92.839844 176.199219 92.839844 182.480469 89.199219 C 188.761719 85.5625 188.761719 79.605469 182.480469 75.96875 Z M 216.210938 95.484375 C 209.925781 91.847656 199.675781 91.847656 193.394531 95.484375 C 187.109375 99.125 187.109375 105.078125 193.394531 108.714844 C 199.675781 112.355469 209.925781 112.355469 216.210938 108.714844 C 222.492188 105.078125 222.492188 99.125 216.210938 95.484375 Z M 58.148438 69.683594 C 64.429688 73.324219 74.679688 73.324219 80.964844 69.683594 C 87.246094 66.046875 87.246094 60.089844 80.964844 56.453125 C 74.679688 52.8125 64.429688 52.8125 58.148438 56.453125 C 51.863281 60.089844 51.863281 65.714844 58.148438 69.683594 Z M 115.023438 75.96875 C 108.738281 72.328125 98.488281 72.328125 92.207031 75.96875 C 85.921875 79.605469 85.921875 85.5625 92.207031 89.199219 C 98.488281 92.839844 108.738281 92.839844 115.023438 89.199219 C 121.304688 85.5625 121.304688 79.605469 115.023438 75.96875 Z M 148.75 95.484375 C 142.46875 91.847656 132.21875 91.847656 125.933594 95.484375 C 119.652344 99.125 119.652344 105.078125 125.933594 108.714844 C 132.21875 112.355469 142.46875 112.355469 148.75 108.714844 C 155.035156 105.078125 155.035156 99.125 148.75 95.484375 Z M 182.480469 115 C 176.199219 111.363281 165.945312 111.363281 159.664062 115 C 153.382812 118.640625 153.382812 124.59375 159.664062 128.230469 C 165.945312 131.871094 176.199219 131.871094 182.480469 128.230469 C 189.09375 124.59375 189.09375 118.640625 182.480469 115 Z M 47.566406 75.96875 C 41.28125 72.328125 31.03125 72.328125 24.75 75.96875 C 18.464844 79.605469 18.464844 85.5625 24.75 89.199219 C 31.03125 92.839844 41.28125 92.839844 47.566406 89.199219 C 53.847656 85.5625 53.847656 79.605469 47.566406 75.96875 Z M 81.292969 95.484375 C 75.011719 91.847656 64.761719 91.847656 58.476562 95.484375 C 52.195312 99.125 52.195312 105.078125 58.476562 108.714844 C 64.761719 112.355469 75.011719 112.355469 81.292969 108.714844 C 87.578125 105.078125 87.578125 99.125 81.292969 95.484375 Z M 115.023438 115 C 108.738281 111.363281 98.488281 111.363281 92.207031 115 C 85.921875 118.640625 85.921875 124.59375 92.207031 128.230469 C 98.488281 131.871094 108.738281 131.871094 115.023438 128.230469 C 121.636719 124.59375 121.636719 118.640625 115.023438 115 Z M 149.082031 134.515625 C 142.800781 130.878906 132.546875 130.878906 126.265625 134.515625 C 119.984375 138.15625 119.984375 144.109375 126.265625 147.75 C 132.546875 151.386719 142.800781 151.386719 149.082031 147.75 C 155.363281 144.109375 155.363281 138.15625 149.082031 134.515625 Z M 149.082031 134.515625 "/><g clip-rule="nonzero" clip-path="url(#clip1)"><path style=" stroke:none;fill-rule:nonzero;fill:rgb(94.509888%,81.17981%,27.059937%);fill-opacity:1;" d="M 31.363281 119.632812 C 31.363281 126.910156 26.070312 129.886719 19.789062 126.246094 C 13.507812 122.609375 8.214844 113.679688 8.214844 106.402344 C 8.214844 99.125 13.507812 96.144531 19.789062 99.785156 C 26.402344 103.753906 31.691406 112.355469 31.363281 119.632812 Z M 53.847656 119.632812 C 47.566406 115.992188 42.273438 118.96875 42.273438 126.246094 C 42.273438 133.523438 47.234375 142.457031 53.847656 146.09375 C 60.132812 149.734375 65.421875 146.757812 65.421875 139.480469 C 65.421875 131.871094 60.132812 123.269531 53.847656 119.632812 Z M 87.578125 139.148438 C 81.292969 135.507812 76.003906 138.488281 76.003906 145.761719 C 76.003906 153.039062 80.964844 161.972656 87.578125 165.609375 C 93.859375 169.25 99.152344 166.273438 99.152344 158.996094 C 99.152344 151.71875 94.191406 142.785156 87.578125 139.148438 Z M 121.636719 158.664062 C 115.355469 155.027344 110.0625 158.003906 110.0625 165.28125 C 110.0625 172.558594 115.023438 181.488281 121.636719 185.125 C 127.917969 188.765625 133.210938 185.789062 133.210938 178.511719 C 132.878906 171.234375 127.917969 162.304688 121.636719 158.664062 Z M 20.121094 138.816406 C 13.835938 135.179688 8.546875 138.15625 8.546875 145.433594 C 8.546875 152.710938 13.507812 161.640625 20.121094 165.28125 C 26.402344 168.917969 31.691406 165.941406 31.691406 158.664062 C 31.363281 151.386719 26.402344 142.457031 20.121094 138.816406 Z M 53.847656 158.332031 C 47.566406 154.695312 42.273438 157.671875 42.273438 164.949219 C 42.273438 172.226562 47.234375 181.15625 53.847656 184.796875 C 60.132812 188.433594 65.421875 185.457031 65.421875 178.179688 C 65.421875 170.902344 60.132812 161.972656 53.847656 158.332031 Z M 87.578125 177.847656 C 81.292969 174.210938 76.003906 177.1875 76.003906 184.464844 C 76.003906 191.742188 80.964844 200.671875 87.578125 204.3125 C 93.859375 207.949219 99.152344 204.972656 99.152344 197.695312 C 99.152344 190.417969 93.859375 181.488281 87.578125 177.847656 Z M 121.304688 197.367188 C 115.023438 193.726562 109.730469 196.703125 109.730469 203.980469 C 109.730469 211.257812 114.691406 220.191406 121.304688 223.828125 C 127.589844 227.46875 132.878906 224.488281 132.878906 217.210938 C 132.878906 209.933594 127.917969 201.003906 121.304688 197.367188 Z M 19.789062 177.847656 C 13.507812 174.210938 8.214844 177.1875 8.214844 184.464844 C 8.214844 191.742188 13.175781 200.671875 19.789062 204.3125 C 26.070312 207.949219 31.363281 204.972656 31.363281 197.695312 C 31.363281 190.089844 26.070312 181.488281 19.789062 177.847656 Z M 53.847656 197.367188 C 47.566406 193.726562 42.273438 196.703125 42.273438 203.980469 C 42.273438 211.257812 47.234375 220.191406 53.847656 223.828125 C 60.132812 227.46875 65.421875 224.488281 65.421875 217.210938 C 65.089844 209.933594 60.132812 201.003906 53.847656 197.367188 Z M 87.578125 216.882812 C 81.292969 213.242188 76.003906 216.21875 76.003906 223.496094 C 76.003906 230.773438 80.964844 239.707031 87.578125 243.34375 C 93.859375 246.984375 99.152344 244.007812 99.152344 236.730469 C 98.820312 229.453125 93.859375 220.519531 87.578125 216.882812 Z M 121.304688 236.398438 C 115.023438 232.757812 109.730469 235.738281 109.730469 243.011719 C 109.730469 250.289062 114.691406 259.222656 121.304688 262.859375 C 127.589844 266.5 132.878906 263.523438 132.878906 256.246094 C 132.878906 248.96875 127.589844 240.035156 121.304688 236.398438 Z M 19.789062 216.550781 C 13.507812 212.914062 8.214844 215.890625 8.214844 223.167969 C 8.214844 230.445312 13.175781 239.375 19.789062 243.011719 C 26.070312 246.652344 31.363281 243.675781 31.363281 236.398438 C 31.363281 229.121094 26.070312 220.191406 19.789062 216.550781 Z M 53.515625 236.066406 C 47.234375 232.429688 41.945312 235.40625 41.945312 242.683594 C 41.945312 249.960938 46.902344 258.890625 53.515625 262.53125 C 59.800781 266.167969 65.089844 263.191406 65.089844 255.914062 C 65.089844 248.636719 59.800781 239.707031 53.515625 236.066406 Z M 87.246094 255.582031 C 80.964844 251.945312 75.671875 254.921875 75.671875 262.199219 C 75.671875 269.476562 80.632812 278.40625 87.246094 282.046875 C 93.527344 285.683594 98.820312 282.707031 98.820312 275.429688 C 98.820312 268.152344 93.859375 259.222656 87.246094 255.582031 Z M 121.304688 275.097656 C 115.023438 271.460938 109.730469 274.4375 109.730469 281.714844 C 109.730469 288.992188 114.691406 297.921875 121.304688 301.5625 C 127.589844 305.199219 132.878906 302.222656 132.878906 294.945312 C 132.546875 287.667969 127.589844 278.738281 121.304688 275.097656 Z M 121.304688 275.097656 "/></g><g clip-rule="nonzero" clip-path="url(#clip2)"><path style=" stroke:none;fill-rule:nonzero;fill:rgb(100%,74.119568%,34.899902%);fill-opacity:1;" d="M 145.113281 177.519531 C 145.113281 170.242188 150.074219 161.308594 156.6875 157.671875 C 162.972656 154.03125 168.261719 157.011719 168.261719 164.289062 C 168.261719 171.566406 163.300781 180.496094 156.6875 184.132812 C 150.074219 187.773438 145.113281 184.796875 145.113281 177.519531 Z M 190.417969 164.617188 C 196.699219 160.980469 201.988281 152.046875 201.988281 144.769531 C 201.988281 137.492188 196.699219 134.515625 190.417969 138.15625 C 184.132812 141.792969 178.84375 150.726562 178.84375 158.003906 C 178.84375 165.28125 184.132812 168.257812 190.417969 164.617188 Z M 224.144531 144.769531 C 230.429688 141.132812 235.71875 132.203125 235.71875 124.925781 C 235.71875 117.648438 230.429688 114.671875 224.144531 118.308594 C 217.863281 121.949219 212.570312 130.878906 212.570312 138.15625 C 212.570312 145.761719 217.863281 148.742188 224.144531 144.769531 Z M 257.875 125.253906 C 264.15625 121.617188 269.449219 112.683594 269.449219 105.40625 C 269.449219 98.132812 264.15625 95.152344 257.875 98.792969 C 251.589844 102.429688 246.300781 111.363281 246.300781 118.640625 C 246.632812 126.246094 251.589844 128.894531 257.875 125.253906 Z M 156.6875 222.835938 C 162.972656 219.199219 168.261719 210.265625 168.261719 202.988281 C 168.261719 195.710938 162.972656 192.734375 156.6875 196.375 C 150.40625 200.011719 145.113281 208.941406 145.113281 216.21875 C 145.113281 223.496094 150.40625 226.472656 156.6875 222.835938 Z M 190.417969 203.320312 C 196.699219 199.679688 201.988281 190.75 201.988281 183.472656 C 201.988281 176.195312 196.699219 173.21875 190.417969 176.855469 C 184.132812 180.496094 178.84375 189.425781 178.84375 196.703125 C 178.84375 203.980469 184.132812 206.957031 190.417969 203.320312 Z M 224.144531 183.804688 C 230.429688 180.164062 235.71875 171.234375 235.71875 163.957031 C 235.71875 156.679688 230.429688 153.703125 224.144531 157.339844 C 217.863281 160.980469 212.570312 169.910156 212.570312 177.1875 C 212.902344 184.464844 217.863281 187.441406 224.144531 183.804688 Z M 258.203125 164.289062 C 264.488281 160.648438 269.777344 151.71875 269.777344 144.441406 C 269.777344 137.164062 264.488281 134.1875 258.203125 137.824219 C 251.921875 141.464844 246.632812 150.394531 246.632812 157.671875 C 246.632812 164.949219 251.921875 167.925781 258.203125 164.289062 Z M 156.6875 261.867188 C 162.972656 258.230469 168.261719 249.296875 168.261719 242.019531 C 168.261719 234.742188 162.972656 231.765625 156.6875 235.40625 C 150.40625 239.042969 145.113281 247.976562 145.113281 255.253906 C 145.113281 262.53125 150.40625 265.507812 156.6875 261.867188 Z M 190.417969 242.351562 C 196.699219 238.714844 201.988281 229.78125 201.988281 222.503906 C 201.988281 215.226562 196.699219 212.25 190.417969 215.890625 C 184.132812 219.527344 178.84375 228.460938 178.84375 235.738281 C 179.171875 243.011719 184.132812 245.992188 190.417969 242.351562 Z M 224.476562 222.835938 C 230.757812 219.199219 236.050781 210.265625 236.050781 202.988281 C 236.050781 195.710938 230.757812 192.734375 224.476562 196.375 C 218.191406 200.011719 212.902344 208.941406 212.902344 216.21875 C 212.902344 223.496094 218.191406 226.472656 224.476562 222.835938 Z M 258.203125 203.320312 C 264.488281 199.679688 269.777344 190.75 269.777344 183.472656 C 269.777344 176.195312 264.488281 173.21875 258.203125 176.855469 C 251.921875 180.496094 246.632812 189.425781 246.632812 196.703125 C 246.632812 203.980469 251.921875 206.957031 258.203125 203.320312 Z M 156.6875 274.105469 C 150.40625 277.746094 145.113281 286.675781 145.113281 293.953125 C 145.113281 301.230469 150.40625 304.207031 156.6875 300.570312 C 162.972656 296.929688 168.261719 288 168.261719 280.722656 C 168.261719 273.445312 162.96875 270.46875 156.6875 274.105469 Z M 190.746094 254.589844 C 184.464844 258.230469 179.171875 267.160156 179.171875 274.4375 C 179.171875 281.714844 184.464844 284.691406 190.746094 281.054688 C 197.03125 277.414062 202.320312 268.484375 202.320312 261.207031 C 201.988281 253.929688 197.03125 250.953125 190.746094 254.589844 Z M 224.476562 235.074219 C 218.191406 238.714844 212.902344 247.644531 212.902344 254.921875 C 212.902344 262.199219 218.191406 265.175781 224.476562 261.539062 C 230.757812 257.898438 236.050781 248.96875 236.050781 241.691406 C 236.050781 234.414062 230.757812 231.4375 224.476562 235.074219 Z M 258.203125 215.558594 C 251.921875 219.199219 246.632812 228.128906 246.632812 235.40625 C 246.632812 242.683594 251.921875 245.660156 258.203125 242.019531 C 264.488281 238.382812 269.777344 229.453125 269.777344 222.175781 C 269.777344 214.898438 264.488281 211.921875 258.203125 215.558594 Z M 258.203125 215.558594 "/></g></g></svg>